<?xml version="1.0" encoding="utf-8"?>
<!-- Generator: Adobe Illustrator 25.4.1, SVG Export Plug-In . SVG Version: 6.00 Build 0)  -->
<svg version="1.1" id="Layer_1" xmlns="http://www.w3.org/2000/svg" xmlns:xlink="http://www.w3.org/1999/xlink" x="0px" y="0px"
	 viewBox="0 0 133.1 161.3" style="enable-background:new 0 0 133.1 161.3;" xml:space="preserve">
<style type="text/css">
	.st0{display:none;}
	.st1{display:inline;fill:#FFFFFF;}
	.st2{fill:#FFFFFF;}
</style>
<g transform="matrix(-1 0 0 1 100.00000190734863 0)">
	<g class="st0">
		<rect x="-391.2" y="535.3" class="st1" width="2463" height="-1521.9"/>
	</g>
	<g>
		<path class="st2" d="M38.9,0H28C-5.7,0-33.1,27.4-33.1,61.1v34.6c0,36.2,29.5,65.7,65.7,65.7h60.7c3.6,0,6.6-3,6.6-6.6V61.1
			C100,27.4,72.6,0,38.9,0z M86.8,147.8c-16-2.1-28.4-15.8-28.4-32.4c0-6.8,2.1-13.4,6.1-18.9c4.3-6.1,10.6-10.5,17.8-12.6
			c1.5-0.4,3-0.7,4.6-0.9L86.8,147.8L86.8,147.8z M86.8,69.7c-2.8,0.3-5.5,0.7-8.2,1.5c-10.1,2.8-18.9,9.1-25,17.6
			c-5.6,7.8-8.5,17-8.5,26.6c0,12.8,5.3,24.4,13.7,32.7H32.6c-28.9,0-52.5-23.5-52.5-52.5V61.1c0-26.4,21.5-47.8,47.8-47.8h10.9
			c26.4,0,47.8,21.5,47.8,47.8L86.8,69.7L86.8,69.7z"/>
		<path class="st2" d="M45.4,55.5V69h13.5c6.6,0,12-5.4,12-12V43.5H57.4C50.8,43.5,45.4,48.9,45.4,55.5z"/>
		<path class="st2" d="M9.5,43.5H-4V57c0,6.6,5.4,12,12,12h13.5V55.5C21.5,48.9,16.1,43.5,9.5,43.5z"/>
	</g>
</g>
<g transform="matrix(1 0 0 1 0 0)">
	<path id="id-3d45e88f-7212-4999-bb0f-f406bf894f0fD6z1nYkh1" class="st2" d="M24.9,115.8c-4.8,0-9.1-0.8-12.8-2.4
		c-3.7-1.6-7.3-4.1-10.8-7.6l0,0c-0.8-0.7-1.2-1.5-1.2-2.4l0,0c0-0.8,0.3-1.5,1-2.2s1.4-1,2.2-1l0,0c0.8,0,1.5,0.3,2.2,1l0,0
		c5.2,5.8,11.8,8.7,19.6,8.7l0,0c4.8,0,8.8-1.1,12-3.4c3.2-2.3,4.8-5.3,4.8-9l0,0c0-2.9-0.8-5.3-2.4-7.2c-1.6-1.9-3.6-3.5-6.2-4.7
		s-5.8-2.5-9.8-3.7l0,0c-4.3-1.3-7.9-2.7-10.8-4.2c-2.9-1.5-5.3-3.6-7.1-6.2c-1.8-2.6-2.7-5.9-2.7-9.8l0,0c0-3.6,1-6.7,2.9-9.5
		s4.6-4.9,8.1-6.5s7.4-2.4,11.9-2.4l0,0c4.1,0,7.9,0.7,11.5,2.1s6.5,3.3,8.6,5.9l0,0c1,1.1,1.5,2.1,1.5,2.9l0,0c0,0.7-0.3,1.4-1,2.1
		s-1.4,1-2.2,1l0,0c-0.7,0-1.2-0.2-1.7-0.7l0,0c-1.8-2.1-4.2-3.9-7.2-5.2c-3-1.3-6.2-2-9.5-2l0,0c-4.9,0-8.9,1.1-12,3.3
		c-3.1,2.2-4.6,5.2-4.6,8.9l0,0c0,3.9,1.5,6.9,4.4,9c3,2.1,7.2,4,12.7,5.7l0,0c4.8,1.4,8.7,2.9,11.7,4.3s5,4.8,6.9,7.5
		c1.9,2.7,3.4,5.1,3.4,9.5l0,0c0,3.4-1,6.5-3,9.3c-2,2.8-4.7,5-8.3,6.6C33.4,115,29.4,115.8,24.9,115.8L24.9,115.8z"/>
</g>
<g transform="matrix(1 0 0 1 0 0)">
	<path id="id-3d45e88f-7212-4999-bb0f-f406bf894f0fD6z1nYkh1_00000139982884846384188700000006551472184632011938_" class="st2" d="
		M107.6,115.8c-4.5,0-8.5-0.8-12-2.4c-3.5-1.6-6.3-3.8-8.3-6.6c-2-2.8-3-5.9-3-9.3l0,0c0-4.4,1-8,2.9-10.7s4.4-4.8,7.4-6.3
		s6.9-2.9,11.7-4.3l0,0c5.5-1.7,9.7-3.7,12.7-5.7c3-2.1,4.4-5.1,4.4-9l0,0c0-3.8-1.5-6.7-4.6-8.9c-3.1-2.2-7.1-3.3-12-3.3l0,0
		c-3.3,0-6.4,0.7-9.5,2c-3,1.3-5.4,3.1-7.2,5.2l0,0c-0.5,0.5-1,0.7-1.7,0.7l0,0c-0.8,0-1.5-0.3-2.2-1c-0.7-0.6-1-1.3-1-2.1l0,0
		c0-0.8,0.5-1.8,1.5-2.9l0,0c2.1-2.6,5-4.5,8.6-5.9c3.6-1.4,7.4-2.1,11.5-2.1l0,0c4.5,0,8.5,0.8,11.9,2.4s6.1,3.7,8.1,6.5
		s2.9,5.9,2.9,9.5l0,0c0,4-0.9,7.2-2.7,9.8c-1.8,2.6-4.2,4.6-7.1,6.2c-2.9,1.5-6.5,3-10.8,4.2l0,0c-4,1.3-7.2,2.5-9.8,3.7
		c-2.6,1.2-4.6,2.8-6.2,4.7c-1.6,1.9-2.4,4.3-2.4,7.2l0,0c0,3.7,1.6,6.7,4.8,9s7.2,3.4,12,3.4l0,0c7.9,0,14.4-2.9,19.6-8.7l0,0
		c0.7-0.7,1.4-1,2.2-1l0,0c0.8,0,1.5,0.3,2.2,1s-0.2,1.8-0.2,2.6l1.1-0.4c0,0.9-0.4,1.7-1.2,2.4l0,0c-3.5,3.4-7.1,5.9-10.8,7.6
		C116.7,115,112.4,115.8,107.6,115.8L107.6,115.8z"/>
</g>
</svg>
